<svg width="30" height="29" fill="none" xmlns="http://www.w3.org/2000/svg"><g clip-path="url(#a)"><path d="M29.486 5.739c-.273-2.314-2.293-4.142-4.852-4.389-6.416-.62-12.852-.62-19.268 0C2.807 1.597.786 3.425.514 5.74a74.165 74.165 0 0 0 0 17.426c.273 2.314 2.293 4.142 4.852 4.39 6.416.618 12.852.618 19.268 0 2.559-.248 4.58-2.076 4.852-4.39a74.167 74.167 0 0 0 0-17.426Z" fill="url(#b)"/><path d="M27.855 6.72c-.242-2.053-2.036-3.675-4.306-3.894a88.89 88.89 0 0 0-17.098 0c-2.27.22-4.064 1.841-4.306 3.894a65.836 65.836 0 0 0 0 15.464c.242 2.053 2.036 3.675 4.306 3.894 5.694.55 11.404.55 17.098 0 2.27-.219 4.064-1.84 4.306-3.894a65.82 65.82 0 0 0 0-15.464Z" fill="url(#c)"/><path d="M.45 22.603c.02.187.041.375.064.562.273 2.314 2.293 4.142 4.852 4.389 6.416.62 12.852.62 19.268 0 2.559-.247 4.58-2.075 4.852-4.389.023-.187.044-.375.065-.562H.449Z" fill="url(#d)"/><path d="M29.486 23.166a74.18 74.18 0 0 0 .51-9.364L23.14 7.6c-.857-.885-2.108-1.437-3.579-1.485a142.834 142.834 0 0 0-9.081 0c-2.512.079-4.268 1.606-4.719 3.85-.08.396-.127.797-.19 1.197v6.579c.035.213.086.425.102.64.1 1.365.72 2.534 1.714 3.325l6.978 6.31a99.62 99.62 0 0 0 10.27-.462c2.558-.247 4.578-2.074 4.851-4.388Z" fill="url(#e)"/><path d="M29.486 23.166c-.272 2.313-2.294 4.141-4.852 4.388-3.42.33-6.845.484-10.269.463l-6.967-6.302c.807.64 1.86 1.029 3.082 1.07 3.024.103 6.058.1 9.081.002 2.735-.09 4.714-1.92 4.8-4.394.09-2.626.09-5.259 0-7.885a4.338 4.338 0 0 0-1.217-2.904l6.853 6.198a74.395 74.395 0 0 1-.51 9.364Z" fill="url(#f)"/><path d="M18.54 11.514c-.879-.865-2.139-1.408-3.54-1.408-2.654 0-4.805 1.946-4.805 4.346 0 1.267.6 2.407 1.556 3.202L22.87 27.709c.588-.047 1.177-.098 1.765-.155 2.558-.247 4.58-2.075 4.852-4.389.063-.531.12-1.064.171-1.596L18.54 11.514Z" fill="url(#g)"/><path d="m29.942 17.375-8.948-8.092a1.184 1.184 0 0 0-.908-.409c-.631 0-1.143.463-1.143 1.034a1 1 0 0 0 .451.822l10.388 9.395c.07-.916.124-1.833.16-2.75Z" fill="url(#h)"/><path d="M5.572 11.162c.062-.4.11-.8.19-1.197.45-2.244 2.206-3.771 4.718-3.85 3.024-.093 6.057-.098 9.081 0 2.734.09 4.714 1.92 4.8 4.393.09 2.627.09 5.26 0 7.886-.086 2.473-2.065 4.304-4.8 4.393-3.023.099-6.057.101-9.081-.002-2.734-.093-4.624-1.928-4.807-4.405-.016-.214-.067-.426-.101-.64v-6.578Zm9.43 10.159c1.384 0 2.77.037 4.152-.009 2.166-.072 3.5-1.242 3.55-3.2.062-2.44.062-4.882 0-7.322-.05-1.958-1.385-3.155-3.55-3.196-2.75-.053-5.502-.052-8.25 0-2.15.04-3.487 1.213-3.545 3.15-.074 2.47-.074 4.944 0 7.415.058 1.936 1.395 3.081 3.544 3.153 1.365.046 2.733.009 4.1.009Z" fill="url(#i)"/><path d="M5.572 11.162c.062-.4.11-.8.19-1.197.45-2.244 2.206-3.771 4.718-3.85 3.024-.093 6.057-.098 9.081 0 2.734.09 4.714 1.92 4.8 4.393.09 2.627.09 5.26 0 7.886-.086 2.473-2.065 4.304-4.8 4.393-3.023.099-6.057.101-9.081-.002-2.734-.093-4.624-1.928-4.807-4.405-.016-.214-.067-.426-.101-.64v-6.578Zm9.43 10.159c1.384 0 2.77.037 4.152-.009 2.166-.072 3.5-1.242 3.55-3.2.062-2.44.062-4.882 0-7.322-.05-1.958-1.385-3.155-3.55-3.196-2.75-.053-5.502-.052-8.25 0-2.15.04-3.487 1.213-3.545 3.15-.074 2.47-.074 4.944 0 7.415.058 1.936 1.395 3.081 3.544 3.153 1.365.046 2.733.009 4.1.009Z" fill="#fff"/><path d="M15 10.106c-2.654 0-4.805 1.946-4.805 4.346 0 2.4 2.151 4.346 4.805 4.346s4.805-1.946 4.805-4.346c0-2.4-2.151-4.346-4.805-4.346Zm0 7.196c-1.74 0-3.15-1.276-3.15-2.85s1.41-2.85 3.15-2.85 3.15 1.276 3.15 2.85-1.41 2.85-3.15 2.85Zm6.229-7.394c0 .571-.512 1.034-1.143 1.034s-1.143-.463-1.143-1.034c0-.57.511-1.034 1.143-1.034.631 0 1.143.463 1.143 1.034Z" fill="#fff"/></g><defs><linearGradient id="c" x1="11.506" y1="12.675" x2="-36.737" y2="-17.33" gradientUnits="userSpaceOnUse"><stop stop-color="#A1B5D8" stop-opacity="0"/><stop offset=".309" stop-color="#90A2BD" stop-opacity=".31"/><stop offset=".755" stop-color="#7C8B9C" stop-opacity=".757"/><stop offset="1" stop-color="#748290"/></linearGradient><linearGradient id="d" x1="15" y1="24.837" x2="15" y2="29.066" gradientUnits="userSpaceOnUse"><stop stop-color="#FAE100" stop-opacity="0"/><stop offset=".307" stop-color="#FCA800" stop-opacity=".306"/><stop offset=".627" stop-color="#FE7300" stop-opacity=".627"/><stop offset=".869" stop-color="#FF5200" stop-opacity=".867"/><stop offset="1" stop-color="#FF4500"/></linearGradient><linearGradient id="e" x1="13.293" y1="12.87" x2="6.612" y2="5.483" gradientUnits="userSpaceOnUse"><stop stop-color="#833AB4" stop-opacity="0"/><stop offset="1" stop-color="#833AB4"/></linearGradient><linearGradient id="f" x1="20.561" y1="25.702" x2="17.505" y2="9.777" gradientUnits="userSpaceOnUse"><stop stop-color="#833AB4" stop-opacity="0"/><stop offset="1" stop-color="#833AB4"/></linearGradient><linearGradient id="g" x1="21.971" y1="20.756" x2="8.576" y2="5.947" gradientUnits="userSpaceOnUse"><stop stop-color="#833AB4" stop-opacity="0"/><stop offset="1" stop-color="#833AB4"/></linearGradient><linearGradient id="h" x1="23.075" y1="12.611" x2="18.645" y2="7.714" gradientUnits="userSpaceOnUse"><stop stop-color="#833AB4" stop-opacity="0"/><stop offset="1" stop-color="#833AB4"/></linearGradient><linearGradient id="i" x1="20.956" y1="9.103" x2="10.036" y2="21.177" gradientUnits="userSpaceOnUse"><stop stop-color="#833AB4"/><stop offset=".092" stop-color="#9C3495"/><stop offset=".293" stop-color="#DC2546"/><stop offset=".392" stop-color="#FD1D1D"/><stop offset=".559" stop-color="#FC6831"/><stop offset=".689" stop-color="#FC9B40"/><stop offset=".752" stop-color="#FCAF45"/><stop offset=".781" stop-color="#FDB750"/><stop offset=".866" stop-color="#FECB6A"/><stop offset=".942" stop-color="#FFD87A"/><stop offset="1" stop-color="#FFDC80"/></linearGradient><radialGradient id="b" cx="0" cy="0" r="1" gradientUnits="userSpaceOnUse" gradientTransform="matrix(33.0847 0 0 29.9228 6.15 24.598)"><stop stop-color="#FAE100"/><stop offset=".054" stop-color="#FADC04"/><stop offset=".117" stop-color="#FBCE0E"/><stop offset=".183" stop-color="#FCB720"/><stop offset=".251" stop-color="#FE9838"/><stop offset=".305" stop-color="#FF7950"/><stop offset=".492" stop-color="#FF1C74"/><stop offset="1" stop-color="#6C1CD1"/></radialGradient><clipPath id="a"><path fill="#fff" transform="translate(0 .886)" d="M0 0h30v27.133H0z"/></clipPath></defs></svg>