<svg width="30" height="29" fill="none" xmlns="http://www.w3.org/2000/svg"><g clip-path="url(#a)"><path d="M30 14.452c0 7.493-6.716 13.567-15 13.567-8.284 0-15-6.074-15-13.567C0 6.96 6.716.886 15 .886c8.284 0 15 6.074 15 13.566Z" fill="#4A7AFF"/><path d="M15.658 28.005C23.638 27.693 30 21.745 30 14.452l-.002-.158-10.412-9.417L8.453 15.4l6.185 5.595-2.852 3.507 3.872 3.502Z" fill="#0053BF"/><path d="M19.586 4.877v3.072s-3.9-.512-3.9 1.764v2.275h3.522l-.44 3.47h-3.082v9.045h-3.9v-9.045l-3.333-.057v-3.413h3.27V9.37s-.216-3.893 4.026-4.608c1.761-.297 3.837.114 3.837.114Z" fill="#fff"/><path d="M19.586 7.949V4.877s-2.076-.41-3.837-.114a6.462 6.462 0 0 0-.77.178v19.562h.707v-9.045h3.082l.44-3.47h-3.522V9.713c0-2.276 3.9-1.764 3.9-1.764Z" fill="#DCE1EB"/></g><defs><clipPath id="a"><path fill="#fff" transform="translate(0 .886)" d="M0 0h30v27.133H0z"/></clipPath></defs></svg>